<svg width="224" height="224" viewBox="0 0 224 224" fill="none" xmlns="http://www.w3.org/2000/svg">
<rect width="224" height="224" rx="20" fill="#383838"/>
<path d="M129.337 82.513C125.771 82.513 123.275 81.8001 121.849 80.3741C120.494 78.8768 119.817 77.0944 119.817 75.0268V71.9253C119.817 69.7864 120.494 68.0039 121.849 66.578C123.275 65.152 125.771 64.439 129.337 64.439C132.903 64.439 135.363 65.152 136.718 66.578C138.144 68.0039 138.857 69.7864 138.857 71.9253V75.0268C138.857 77.0944 138.144 78.8768 136.718 80.3741C135.363 81.8001 132.903 82.513 129.337 82.513ZM103.878 132.457H121.421V101.87H103.878V89.5715H137.253V132.457H153.512V144.756H103.878V132.457Z" fill="white"/>
<path d="M72.7572 135.147H72.1175C70.9092 138.306 68.9901 140.998 66.3602 143.223C63.8014 145.448 60.3185 146.561 55.9117 146.561C53.2818 146.561 50.8651 146.13 48.6617 145.269C46.4583 144.336 44.5747 142.972 43.011 141.177C41.4473 139.382 40.2034 137.193 39.2794 134.609C38.4265 132.025 38 129.045 38 125.672V89.7073H53.7794V123.518C53.7794 130.696 56.8713 134.286 63.0551 134.286C64.2634 134.286 65.4362 134.142 66.5734 133.855C67.7818 133.496 68.8124 132.994 69.6653 132.348C70.5893 131.63 71.3357 130.768 71.9043 129.763C72.4729 128.758 72.7572 127.574 72.7572 126.21V89.7073H88.5366V145.269H72.7572V135.147Z" fill="white"/>
<path d="M178.72 146.561C174.709 146.561 171.808 145.705 170.017 143.994C168.298 142.211 167.439 140.108 167.439 137.684V133.94C167.439 131.516 168.298 129.448 170.017 127.737C171.808 125.954 174.709 125.063 178.72 125.063C182.73 125.063 185.595 125.954 187.314 127.737C189.105 129.448 190 131.516 190 133.94V137.684C190 140.108 189.105 142.211 187.314 143.994C185.595 145.705 182.73 146.561 178.72 146.561ZM178.72 110.303C174.709 110.303 171.808 109.447 170.017 107.736C168.298 105.953 167.439 103.85 167.439 101.426V97.6822C167.439 95.2579 168.298 93.1901 170.017 91.4788C171.808 89.6962 174.709 88.8049 178.72 88.8049C182.73 88.8049 185.595 89.6962 187.314 91.4788C189.105 93.1901 190 95.2579 190 97.6822V101.426C190 103.85 189.105 105.953 187.314 107.736C185.595 109.447 182.73 110.303 178.72 110.303Z" fill="white"/>
</svg>
